<?xml version="1.0" encoding="UTF-8" standalone="no"?>
<!DOCTYPE svg PUBLIC "-//W3C//DTD SVG 1.1//EN"
 "http://www.w3.org/Graphics/SVG/1.1/DTD/svg11.dtd">
<!-- Generated by graphviz version 3.0.0 (20220226.1711)
 -->
<!-- Pages: 1 -->
<svg width="2913px" height="692px"
 viewBox="0.00 0.00 2913.00 692.00" xmlns="http://www.w3.org/2000/svg" xmlns:xlink="http://www.w3.org/1999/xlink">
<g id="graph0" class="graph" transform="scale(1.0 1.0) rotate(0.0) translate(4.0 688.0)">
<polygon fill="white" stroke="transparent" points="-4,4 -4,-688 2909,-688 2909,4 -4,4"/>
<!-- 0 -->
<g id="node1" class="node">
<title>0</title>
<polygon fill="none" stroke="black" points="1795,-684 1533,-684 1533,-648 1795,-648 1795,-684"/>
<text text-anchor="middle" x="1664" y="-662.3" font-family="Times,serif" font-size="14.00">testLab2Var10.Parser$Tree_func@579bb367</text>
</g>
<!-- 1 -->
<g id="node2" class="node">
<title>1</title>
<polygon fill="none" stroke="black" points="664.5,-612 407.5,-612 407.5,-576 664.5,-576 664.5,-612"/>
<text text-anchor="middle" x="536" y="-590.3" font-family="Times,serif" font-size="14.00">testLab2Var10.Parser$Tree_type@2cdf8d8a</text>
</g>
<!-- 0&#45;&gt;1 -->
<g id="edge1" class="edge">
<title>0&#45;&gt;1</title>
<path fill="none" stroke="black" d="M1532.91,-659.7C1347.8,-651.77 999.31,-635.24 703,-612 693.73,-611.27 684.17,-610.46 674.55,-609.6"/>
<polygon fill="black" stroke="black" points="674.78,-606.11 664.5,-608.69 674.14,-613.08 674.78,-606.11"/>
</g>
<!-- 5 -->
<g id="node6" class="node">
<title>5</title>
<polygon fill="none" stroke="black" points="898,-612 712,-612 712,-576 898,-576 898,-612"/>
<text text-anchor="middle" x="805" y="-590.3" font-family="Times,serif" font-size="14.00">Token[type=LPAR, content=(]</text>
</g>
<!-- 0&#45;&gt;5 -->
<g id="edge2" class="edge">
<title>0&#45;&gt;5</title>
<path fill="none" stroke="black" d="M1532.7,-659.61C1383.67,-652.62 1133.13,-638.25 908.08,-612.06"/>
<polygon fill="black" stroke="black" points="908.4,-608.57 898.06,-610.89 907.58,-615.53 908.4,-608.57"/>
</g>
<!-- 6 -->
<g id="node7" class="node">
<title>6</title>
<polygon fill="none" stroke="black" points="1374,-612 916,-612 916,-576 1374,-576 1374,-612"/>
<text text-anchor="middle" x="1145" y="-590.3" font-family="Times,serif" font-size="14.00">testLab2Var10.Parser$Tree_argument_ZERO_OR_ONE1314037599@61e4705b</text>
</g>
<!-- 0&#45;&gt;6 -->
<g id="edge3" class="edge">
<title>0&#45;&gt;6</title>
<path fill="none" stroke="black" d="M1537.7,-647.97C1460.16,-637.51 1360.84,-624.11 1281.48,-613.41"/>
<polygon fill="black" stroke="black" points="1281.79,-609.92 1271.41,-612.05 1280.86,-616.86 1281.79,-609.92"/>
</g>
<!-- 12 -->
<g id="node13" class="node">
<title>12</title>
<polygon fill="none" stroke="black" points="1936,-612 1392,-612 1392,-576 1936,-576 1936,-612"/>
<text text-anchor="middle" x="1664" y="-590.3" font-family="Times,serif" font-size="14.00">testLab2Var10.Parser$Tree_func_inner1397074268_ZERO_OR_MORE1831436193@51521cc1</text>
</g>
<!-- 0&#45;&gt;12 -->
<g id="edge4" class="edge">
<title>0&#45;&gt;12</title>
<path fill="none" stroke="black" d="M1664,-647.7C1664,-639.98 1664,-630.71 1664,-622.11"/>
<polygon fill="black" stroke="black" points="1667.5,-622.1 1664,-612.1 1660.5,-622.1 1667.5,-622.1"/>
</g>
<!-- 37 -->
<g id="node38" class="node">
<title>37</title>
<polygon fill="none" stroke="black" points="2141.5,-612 1954.5,-612 1954.5,-576 2141.5,-576 2141.5,-612"/>
<text text-anchor="middle" x="2048" y="-590.3" font-family="Times,serif" font-size="14.00">Token[type=RPAR, content=)]</text>
</g>
<!-- 0&#45;&gt;37 -->
<g id="edge5" class="edge">
<title>0&#45;&gt;37</title>
<path fill="none" stroke="black" d="M1757.45,-647.97C1814,-637.66 1886.21,-624.49 1944.5,-613.87"/>
<polygon fill="black" stroke="black" points="1945.26,-617.29 1954.47,-612.05 1944,-610.4 1945.26,-617.29"/>
</g>
<!-- 38 -->
<g id="node39" class="node">
<title>38</title>
<polygon fill="none" stroke="black" points="2390,-612 2160,-612 2160,-576 2390,-576 2390,-612"/>
<text text-anchor="middle" x="2275" y="-590.3" font-family="Times,serif" font-size="14.00">Token[type=SEMICOLON, content=;]</text>
</g>
<!-- 0&#45;&gt;38 -->
<g id="edge6" class="edge">
<title>0&#45;&gt;38</title>
<path fill="none" stroke="black" d="M1795.11,-651.73C1890.62,-641.83 2023.39,-627.58 2149.6,-612.15"/>
<polygon fill="black" stroke="black" points="2150.34,-615.59 2159.84,-610.9 2149.48,-608.64 2150.34,-615.59"/>
</g>
<!-- 39 -->
<g id="node40" class="node">
<title>39</title>
<polygon fill="none" stroke="black" points="2580,-612 2408,-612 2408,-576 2580,-576 2580,-612"/>
<text text-anchor="middle" x="2494" y="-590.3" font-family="Times,serif" font-size="14.00">Token[type=EOF, content=]</text>
</g>
<!-- 0&#45;&gt;39 -->
<g id="edge7" class="edge">
<title>0&#45;&gt;39</title>
<path fill="none" stroke="black" d="M1795.19,-659.7C1940.3,-652.89 2181.16,-638.77 2397.87,-612.06"/>
<polygon fill="black" stroke="black" points="2398.36,-615.53 2407.85,-610.82 2397.49,-608.59 2398.36,-615.53"/>
</g>
<!-- 2 -->
<g id="node3" class="node">
<title>2</title>
<polygon fill="none" stroke="black" points="252,-540 0,-540 0,-504 252,-504 252,-540"/>
<text text-anchor="middle" x="126" y="-518.3" font-family="Times,serif" font-size="14.00">Token[type=TYPE_NAME, content=void]</text>
</g>
<!-- 1&#45;&gt;2 -->
<g id="edge8" class="edge">
<title>1&#45;&gt;2</title>
<path fill="none" stroke="black" d="M436.23,-575.97C375.59,-565.61 298.1,-552.38 235.74,-541.74"/>
<polygon fill="black" stroke="black" points="236.31,-538.28 225.86,-540.05 235.13,-545.18 236.31,-538.28"/>
</g>
<!-- 3 -->
<g id="node4" class="node">
<title>3</title>
<polygon fill="none" stroke="black" points="743.5,-540 270.5,-540 270.5,-504 743.5,-504 743.5,-540"/>
<text text-anchor="middle" x="507" y="-518.3" font-family="Times,serif" font-size="14.00">testLab2Var10.Parser$Tree_POINTER_ZERO_OR_MORE1377152697@5e8c92f4</text>
</g>
<!-- 1&#45;&gt;3 -->
<g id="edge9" class="edge">
<title>1&#45;&gt;3</title>
<path fill="none" stroke="black" d="M528.83,-575.7C525.57,-567.81 521.63,-558.3 518,-549.55"/>
<polygon fill="black" stroke="black" points="521.15,-548 514.09,-540.1 514.68,-550.68 521.15,-548"/>
</g>
<!-- 4 -->
<g id="node5" class="node">
<title>4</title>
<polygon fill="none" stroke="black" points="982,-540 762,-540 762,-504 982,-504 982,-540"/>
<text text-anchor="middle" x="872" y="-518.3" font-family="Times,serif" font-size="14.00">Token[type=NAME, content=aboba]</text>
</g>
<!-- 1&#45;&gt;4 -->
<g id="edge10" class="edge">
<title>1&#45;&gt;4</title>
<path fill="none" stroke="black" d="M617.77,-575.97C666.84,-565.74 729.39,-552.71 780.17,-542.13"/>
<polygon fill="black" stroke="black" points="781.08,-545.52 790.16,-540.05 779.66,-538.66 781.08,-545.52"/>
</g>
<!-- 7 -->
<g id="node8" class="node">
<title>7</title>
<polygon fill="none" stroke="black" points="1290,-540 1000,-540 1000,-504 1290,-504 1290,-540"/>
<text text-anchor="middle" x="1145" y="-518.3" font-family="Times,serif" font-size="14.00">testLab2Var10.Parser$Tree_argument@50134894</text>
</g>
<!-- 6&#45;&gt;7 -->
<g id="edge11" class="edge">
<title>6&#45;&gt;7</title>
<path fill="none" stroke="black" d="M1145,-575.7C1145,-567.98 1145,-558.71 1145,-550.11"/>
<polygon fill="black" stroke="black" points="1148.5,-550.1 1145,-540.1 1141.5,-550.1 1148.5,-550.1"/>
</g>
<!-- 8 -->
<g id="node9" class="node">
<title>8</title>
<polygon fill="none" stroke="black" points="1258,-468 1000,-468 1000,-432 1258,-432 1258,-468"/>
<text text-anchor="middle" x="1129" y="-446.3" font-family="Times,serif" font-size="14.00">testLab2Var10.Parser$Tree_type@2957fcb0</text>
</g>
<!-- 7&#45;&gt;8 -->
<g id="edge12" class="edge">
<title>7&#45;&gt;8</title>
<path fill="none" stroke="black" d="M1141.04,-503.7C1139.28,-495.98 1137.16,-486.71 1135.2,-478.11"/>
<polygon fill="black" stroke="black" points="1138.55,-477.07 1132.91,-468.1 1131.73,-478.63 1138.55,-477.07"/>
</g>
<!-- 9 -->
<g id="node10" class="node">
<title>9</title>
<polygon fill="none" stroke="black" points="834,-396 592,-396 592,-360 834,-360 834,-396"/>
<text text-anchor="middle" x="713" y="-374.3" font-family="Times,serif" font-size="14.00">Token[type=TYPE_NAME, content=int]</text>
</g>
<!-- 8&#45;&gt;9 -->
<g id="edge13" class="edge">
<title>8&#45;&gt;9</title>
<path fill="none" stroke="black" d="M1027.77,-431.97C966.24,-421.61 887.62,-408.38 824.34,-397.74"/>
<polygon fill="black" stroke="black" points="824.77,-394.26 814.33,-396.05 823.61,-401.16 824.77,-394.26"/>
</g>
<!-- 10 -->
<g id="node11" class="node">
<title>10</title>
<polygon fill="none" stroke="black" points="1327.5,-396 852.5,-396 852.5,-360 1327.5,-360 1327.5,-396"/>
<text text-anchor="middle" x="1090" y="-374.3" font-family="Times,serif" font-size="14.00">testLab2Var10.Parser$Tree_POINTER_ZERO_OR_MORE1377152697@1376c05c</text>
</g>
<!-- 8&#45;&gt;10 -->
<g id="edge14" class="edge">
<title>8&#45;&gt;10</title>
<path fill="none" stroke="black" d="M1119.36,-431.7C1114.87,-423.64 1109.44,-413.89 1104.48,-404.98"/>
<polygon fill="black" stroke="black" points="1107.45,-403.14 1099.53,-396.1 1101.34,-406.54 1107.45,-403.14"/>
</g>
<!-- 11 -->
<g id="node12" class="node">
<title>11</title>
<polygon fill="none" stroke="black" points="1540,-396 1346,-396 1346,-360 1540,-360 1540,-396"/>
<text text-anchor="middle" x="1443" y="-374.3" font-family="Times,serif" font-size="14.00">Token[type=NAME, content=a]</text>
</g>
<!-- 8&#45;&gt;11 -->
<g id="edge15" class="edge">
<title>8&#45;&gt;11</title>
<path fill="none" stroke="black" d="M1205.41,-431.97C1251.09,-421.78 1309.24,-408.82 1356.59,-398.26"/>
<polygon fill="black" stroke="black" points="1357.52,-401.64 1366.52,-396.05 1356,-394.81 1357.52,-401.64"/>
</g>
<!-- 13 -->
<g id="node14" class="node">
<title>13</title>
<polygon fill="none" stroke="black" points="1845,-540 1483,-540 1483,-504 1845,-504 1845,-540"/>
<text text-anchor="middle" x="1664" y="-518.3" font-family="Times,serif" font-size="14.00">testLab2Var10.Parser$Tree_func_inner1397074268@1b4fb997</text>
</g>
<!-- 12&#45;&gt;13 -->
<g id="edge16" class="edge">
<title>12&#45;&gt;13</title>
<path fill="none" stroke="black" d="M1664,-575.7C1664,-567.98 1664,-558.71 1664,-550.11"/>
<polygon fill="black" stroke="black" points="1667.5,-550.1 1664,-540.1 1660.5,-550.1 1667.5,-550.1"/>
</g>
<!-- 28 -->
<g id="node29" class="node">
<title>28</title>
<polygon fill="none" stroke="black" points="2436,-540 1894,-540 1894,-504 2436,-504 2436,-540"/>
<text text-anchor="middle" x="2165" y="-518.3" font-family="Times,serif" font-size="14.00">testLab2Var10.Parser$Tree_func_inner1397074268_ZERO_OR_MORE1831436193@6aa8ceb6</text>
</g>
<!-- 12&#45;&gt;28 -->
<g id="edge17" class="edge">
<title>12&#45;&gt;28</title>
<path fill="none" stroke="black" d="M1785.92,-575.97C1860.62,-565.53 1956.26,-552.17 2032.78,-541.47"/>
<polygon fill="black" stroke="black" points="2033.55,-544.9 2042.97,-540.05 2032.58,-537.97 2033.55,-544.9"/>
</g>
<!-- 14 -->
<g id="node15" class="node">
<title>14</title>
<polygon fill="none" stroke="black" points="1527.5,-468 1322.5,-468 1322.5,-432 1527.5,-432 1527.5,-468"/>
<text text-anchor="middle" x="1425" y="-446.3" font-family="Times,serif" font-size="14.00">Token[type=COMMA, content=,]</text>
</g>
<!-- 13&#45;&gt;14 -->
<g id="edge18" class="edge">
<title>13&#45;&gt;14</title>
<path fill="none" stroke="black" d="M1605.84,-503.97C1571.87,-494.01 1528.82,-481.41 1493.24,-470.99"/>
<polygon fill="black" stroke="black" points="1494,-467.56 1483.42,-468.11 1492.03,-474.28 1494,-467.56"/>
</g>
<!-- 15 -->
<g id="node16" class="node">
<title>15</title>
<polygon fill="none" stroke="black" points="1828,-468 1546,-468 1546,-432 1828,-432 1828,-468"/>
<text text-anchor="middle" x="1687" y="-446.3" font-family="Times,serif" font-size="14.00">testLab2Var10.Parser$Tree_argument@deb6432</text>
</g>
<!-- 13&#45;&gt;15 -->
<g id="edge19" class="edge">
<title>13&#45;&gt;15</title>
<path fill="none" stroke="black" d="M1669.69,-503.7C1672.25,-495.9 1675.33,-486.51 1678.18,-477.83"/>
<polygon fill="black" stroke="black" points="1681.58,-478.7 1681.38,-468.1 1674.93,-476.51 1681.58,-478.7"/>
</g>
<!-- 16 -->
<g id="node17" class="node">
<title>16</title>
<polygon fill="none" stroke="black" points="1816,-396 1558,-396 1558,-360 1816,-360 1816,-396"/>
<text text-anchor="middle" x="1687" y="-374.3" font-family="Times,serif" font-size="14.00">testLab2Var10.Parser$Tree_type@28ba21f3</text>
</g>
<!-- 15&#45;&gt;16 -->
<g id="edge20" class="edge">
<title>15&#45;&gt;16</title>
<path fill="none" stroke="black" d="M1687,-431.7C1687,-423.98 1687,-414.71 1687,-406.11"/>
<polygon fill="black" stroke="black" points="1690.5,-406.1 1687,-396.1 1683.5,-406.1 1690.5,-406.1"/>
</g>
<!-- 17 -->
<g id="node18" class="node">
<title>17</title>
<polygon fill="none" stroke="black" points="1428,-324 1148,-324 1148,-288 1428,-288 1428,-324"/>
<text text-anchor="middle" x="1288" y="-302.3" font-family="Times,serif" font-size="14.00">Token[type=TYPE_NAME, content=long long]</text>
</g>
<!-- 16&#45;&gt;17 -->
<g id="edge21" class="edge">
<title>16&#45;&gt;17</title>
<path fill="none" stroke="black" d="M1589.9,-359.97C1531.02,-349.63 1455.79,-336.44 1395.17,-325.8"/>
<polygon fill="black" stroke="black" points="1395.64,-322.33 1385.19,-324.05 1394.43,-329.23 1395.64,-322.33"/>
</g>
<!-- 18 -->
<g id="node19" class="node">
<title>18</title>
<polygon fill="none" stroke="black" points="1920,-324 1446,-324 1446,-288 1920,-288 1920,-324"/>
<text text-anchor="middle" x="1683" y="-302.3" font-family="Times,serif" font-size="14.00">testLab2Var10.Parser$Tree_POINTER_ZERO_OR_MORE1377152697@694f9431</text>
</g>
<!-- 16&#45;&gt;18 -->
<g id="edge22" class="edge">
<title>16&#45;&gt;18</title>
<path fill="none" stroke="black" d="M1686.01,-359.7C1685.57,-351.98 1685.04,-342.71 1684.55,-334.11"/>
<polygon fill="black" stroke="black" points="1688.04,-333.89 1683.98,-324.1 1681.05,-334.29 1688.04,-333.89"/>
</g>
<!-- 27 -->
<g id="node28" class="node">
<title>27</title>
<polygon fill="none" stroke="black" points="2132,-324 1938,-324 1938,-288 2132,-288 2132,-324"/>
<text text-anchor="middle" x="2035" y="-302.3" font-family="Times,serif" font-size="14.00">Token[type=NAME, content=b]</text>
</g>
<!-- 16&#45;&gt;27 -->
<g id="edge23" class="edge">
<title>16&#45;&gt;27</title>
<path fill="none" stroke="black" d="M1771.69,-359.97C1822.62,-349.72 1887.57,-336.66 1940.22,-326.07"/>
<polygon fill="black" stroke="black" points="1941.12,-329.45 1950.24,-324.05 1939.74,-322.59 1941.12,-329.45"/>
</g>
<!-- 19 -->
<g id="node20" class="node">
<title>19</title>
<polygon fill="none" stroke="black" points="1431.5,-252 1220.5,-252 1220.5,-216 1431.5,-216 1431.5,-252"/>
<text text-anchor="middle" x="1326" y="-230.3" font-family="Times,serif" font-size="14.00">Token[type=POINTER, content=*]</text>
</g>
<!-- 18&#45;&gt;19 -->
<g id="edge24" class="edge">
<title>18&#45;&gt;19</title>
<path fill="none" stroke="black" d="M1596.12,-287.97C1543.76,-277.7 1476.96,-264.6 1422.9,-254"/>
<polygon fill="black" stroke="black" points="1423.44,-250.54 1412.96,-252.05 1422.09,-257.41 1423.44,-250.54"/>
</g>
<!-- 20 -->
<g id="node21" class="node">
<title>20</title>
<polygon fill="none" stroke="black" points="1916,-252 1450,-252 1450,-216 1916,-216 1916,-252"/>
<text text-anchor="middle" x="1683" y="-230.3" font-family="Times,serif" font-size="14.00">testLab2Var10.Parser$Tree_POINTER_ZERO_OR_MORE1377152697@f2a0b8e</text>
</g>
<!-- 18&#45;&gt;20 -->
<g id="edge25" class="edge">
<title>18&#45;&gt;20</title>
<path fill="none" stroke="black" d="M1683,-287.7C1683,-279.98 1683,-270.71 1683,-262.11"/>
<polygon fill="black" stroke="black" points="1686.5,-262.1 1683,-252.1 1679.5,-262.1 1686.5,-262.1"/>
</g>
<!-- 21 -->
<g id="node22" class="node">
<title>21</title>
<polygon fill="none" stroke="black" points="1607.5,-180 1396.5,-180 1396.5,-144 1607.5,-144 1607.5,-180"/>
<text text-anchor="middle" x="1502" y="-158.3" font-family="Times,serif" font-size="14.00">Token[type=POINTER, content=*]</text>
</g>
<!-- 20&#45;&gt;21 -->
<g id="edge26" class="edge">
<title>20&#45;&gt;21</title>
<path fill="none" stroke="black" d="M1638.72,-215.88C1613.65,-206.18 1582.1,-193.98 1555.63,-183.74"/>
<polygon fill="black" stroke="black" points="1556.72,-180.41 1546.13,-180.07 1554.2,-186.94 1556.72,-180.41"/>
</g>
<!-- 22 -->
<g id="node23" class="node">
<title>22</title>
<polygon fill="none" stroke="black" points="2102,-180 1626,-180 1626,-144 2102,-144 2102,-180"/>
<text text-anchor="middle" x="1864" y="-158.3" font-family="Times,serif" font-size="14.00">testLab2Var10.Parser$Tree_POINTER_ZERO_OR_MORE1377152697@593634ad</text>
</g>
<!-- 20&#45;&gt;22 -->
<g id="edge27" class="edge">
<title>20&#45;&gt;22</title>
<path fill="none" stroke="black" d="M1727.28,-215.88C1752.35,-206.18 1783.9,-193.98 1810.37,-183.74"/>
<polygon fill="black" stroke="black" points="1811.8,-186.94 1819.87,-180.07 1809.28,-180.41 1811.8,-186.94"/>
</g>
<!-- 23 -->
<g id="node24" class="node">
<title>23</title>
<polygon fill="none" stroke="black" points="1789.5,-108 1578.5,-108 1578.5,-72 1789.5,-72 1789.5,-108"/>
<text text-anchor="middle" x="1684" y="-86.3" font-family="Times,serif" font-size="14.00">Token[type=POINTER, content=*]</text>
</g>
<!-- 22&#45;&gt;23 -->
<g id="edge28" class="edge">
<title>22&#45;&gt;23</title>
<path fill="none" stroke="black" d="M1819.97,-143.88C1795.03,-134.18 1763.66,-121.98 1737.34,-111.74"/>
<polygon fill="black" stroke="black" points="1738.48,-108.43 1727.89,-108.07 1735.94,-114.95 1738.48,-108.43"/>
</g>
<!-- 24 -->
<g id="node25" class="node">
<title>24</title>
<polygon fill="none" stroke="black" points="2280.5,-108 1807.5,-108 1807.5,-72 2280.5,-72 2280.5,-108"/>
<text text-anchor="middle" x="2044" y="-86.3" font-family="Times,serif" font-size="14.00">testLab2Var10.Parser$Tree_POINTER_ZERO_OR_MORE1377152697@20fa23c1</text>
</g>
<!-- 22&#45;&gt;24 -->
<g id="edge29" class="edge">
<title>22&#45;&gt;24</title>
<path fill="none" stroke="black" d="M1908.03,-143.88C1932.97,-134.18 1964.34,-121.98 1990.66,-111.74"/>
<polygon fill="black" stroke="black" points="1992.06,-114.95 2000.11,-108.07 1989.52,-108.43 1992.06,-114.95"/>
</g>
<!-- 25 -->
<g id="node26" class="node">
<title>25</title>
<polygon fill="none" stroke="black" points="1969.5,-36 1758.5,-36 1758.5,0 1969.5,0 1969.5,-36"/>
<text text-anchor="middle" x="1864" y="-14.3" font-family="Times,serif" font-size="14.00">Token[type=POINTER, content=*]</text>
</g>
<!-- 24&#45;&gt;25 -->
<g id="edge30" class="edge">
<title>24&#45;&gt;25</title>
<path fill="none" stroke="black" d="M1999.97,-71.88C1975.03,-62.18 1943.66,-49.98 1917.34,-39.74"/>
<polygon fill="black" stroke="black" points="1918.48,-36.43 1907.89,-36.07 1915.94,-42.95 1918.48,-36.43"/>
</g>
<!-- 26 -->
<g id="node27" class="node">
<title>26</title>
<polygon fill="none" stroke="black" points="2460.5,-36 1987.5,-36 1987.5,0 2460.5,0 2460.5,-36"/>
<text text-anchor="middle" x="2224" y="-14.3" font-family="Times,serif" font-size="14.00">testLab2Var10.Parser$Tree_POINTER_ZERO_OR_MORE1377152697@3581c5f3</text>
</g>
<!-- 24&#45;&gt;26 -->
<g id="edge31" class="edge">
<title>24&#45;&gt;26</title>
<path fill="none" stroke="black" d="M2088.03,-71.88C2112.97,-62.18 2144.34,-49.98 2170.66,-39.74"/>
<polygon fill="black" stroke="black" points="2172.06,-42.95 2180.11,-36.07 2169.52,-36.43 2172.06,-42.95"/>
</g>
<!-- 29 -->
<g id="node30" class="node">
<title>29</title>
<polygon fill="none" stroke="black" points="2343,-468 1987,-468 1987,-432 2343,-432 2343,-468"/>
<text text-anchor="middle" x="2165" y="-446.3" font-family="Times,serif" font-size="14.00">testLab2Var10.Parser$Tree_func_inner1397074268@2530c12</text>
</g>
<!-- 28&#45;&gt;29 -->
<g id="edge32" class="edge">
<title>28&#45;&gt;29</title>
<path fill="none" stroke="black" d="M2165,-503.7C2165,-495.98 2165,-486.71 2165,-478.11"/>
<polygon fill="black" stroke="black" points="2168.5,-478.1 2165,-468.1 2161.5,-478.1 2168.5,-478.1"/>
</g>
<!-- 36 -->
<g id="node37" class="node">
<title>36</title>
<polygon fill="none" stroke="black" points="2905,-468 2361,-468 2361,-432 2905,-432 2905,-468"/>
<text text-anchor="middle" x="2633" y="-446.3" font-family="Times,serif" font-size="14.00">testLab2Var10.Parser$Tree_func_inner1397074268_ZERO_OR_MORE1831436193@7e0b37bc</text>
</g>
<!-- 28&#45;&gt;36 -->
<g id="edge33" class="edge">
<title>28&#45;&gt;36</title>
<path fill="none" stroke="black" d="M2278.89,-503.97C2348.53,-493.55 2437.64,-480.22 2509.05,-469.54"/>
<polygon fill="black" stroke="black" points="2509.64,-472.99 2519.01,-468.05 2508.6,-466.07 2509.64,-472.99"/>
</g>
<!-- 30 -->
<g id="node31" class="node">
<title>30</title>
<polygon fill="none" stroke="black" points="2267.5,-396 2062.5,-396 2062.5,-360 2267.5,-360 2267.5,-396"/>
<text text-anchor="middle" x="2165" y="-374.3" font-family="Times,serif" font-size="14.00">Token[type=COMMA, content=,]</text>
</g>
<!-- 29&#45;&gt;30 -->
<g id="edge34" class="edge">
<title>29&#45;&gt;30</title>
<path fill="none" stroke="black" d="M2165,-431.7C2165,-423.98 2165,-414.71 2165,-406.11"/>
<polygon fill="black" stroke="black" points="2168.5,-406.1 2165,-396.1 2161.5,-406.1 2168.5,-406.1"/>
</g>
<!-- 31 -->
<g id="node32" class="node">
<title>31</title>
<polygon fill="none" stroke="black" points="2576,-396 2288,-396 2288,-360 2576,-360 2576,-396"/>
<text text-anchor="middle" x="2432" y="-374.3" font-family="Times,serif" font-size="14.00">testLab2Var10.Parser$Tree_argument@73c6c3b2</text>
</g>
<!-- 29&#45;&gt;31 -->
<g id="edge35" class="edge">
<title>29&#45;&gt;31</title>
<path fill="none" stroke="black" d="M2229.97,-431.97C2268.33,-421.91 2317.05,-409.14 2357.03,-398.65"/>
<polygon fill="black" stroke="black" points="2357.95,-402.03 2366.73,-396.11 2356.17,-395.26 2357.95,-402.03"/>
</g>
<!-- 32 -->
<g id="node33" class="node">
<title>32</title>
<polygon fill="none" stroke="black" points="2570,-324 2310,-324 2310,-288 2570,-288 2570,-324"/>
<text text-anchor="middle" x="2440" y="-302.3" font-family="Times,serif" font-size="14.00">testLab2Var10.Parser$Tree_type@48533e64</text>
</g>
<!-- 31&#45;&gt;32 -->
<g id="edge36" class="edge">
<title>31&#45;&gt;32</title>
<path fill="none" stroke="black" d="M2433.98,-359.7C2434.86,-351.98 2435.92,-342.71 2436.9,-334.11"/>
<polygon fill="black" stroke="black" points="2440.39,-334.44 2438.05,-324.1 2433.43,-333.64 2440.39,-334.44"/>
</g>
<!-- 33 -->
<g id="node34" class="node">
<title>33</title>
<polygon fill="none" stroke="black" points="2186,-252 1934,-252 1934,-216 2186,-216 2186,-252"/>
<text text-anchor="middle" x="2060" y="-230.3" font-family="Times,serif" font-size="14.00">Token[type=TYPE_NAME, content=float]</text>
</g>
<!-- 32&#45;&gt;33 -->
<g id="edge37" class="edge">
<title>32&#45;&gt;33</title>
<path fill="none" stroke="black" d="M2347.53,-287.97C2291.56,-277.66 2220.1,-264.49 2162.42,-253.87"/>
<polygon fill="black" stroke="black" points="2163.03,-250.42 2152.56,-252.05 2161.76,-257.3 2163.03,-250.42"/>
</g>
<!-- 34 -->
<g id="node35" class="node">
<title>34</title>
<polygon fill="none" stroke="black" points="2679.5,-252 2204.5,-252 2204.5,-216 2679.5,-216 2679.5,-252"/>
<text text-anchor="middle" x="2442" y="-230.3" font-family="Times,serif" font-size="14.00">testLab2Var10.Parser$Tree_POINTER_ZERO_OR_MORE1377152697@64a294a6</text>
</g>
<!-- 32&#45;&gt;34 -->
<g id="edge38" class="edge">
<title>32&#45;&gt;34</title>
<path fill="none" stroke="black" d="M2440.49,-287.7C2440.71,-279.98 2440.98,-270.71 2441.23,-262.11"/>
<polygon fill="black" stroke="black" points="2444.72,-262.2 2441.51,-252.1 2437.73,-262 2444.72,-262.2"/>
</g>
<!-- 35 -->
<g id="node36" class="node">
<title>35</title>
<polygon fill="none" stroke="black" points="2892,-252 2698,-252 2698,-216 2892,-216 2892,-252"/>
<text text-anchor="middle" x="2795" y="-230.3" font-family="Times,serif" font-size="14.00">Token[type=NAME, content=c]</text>
</g>
<!-- 32&#45;&gt;35 -->
<g id="edge39" class="edge">
<title>32&#45;&gt;35</title>
<path fill="none" stroke="black" d="M2526.39,-287.97C2578.46,-277.7 2644.88,-264.6 2698.65,-254"/>
<polygon fill="black" stroke="black" points="2699.4,-257.42 2708.53,-252.05 2698.04,-250.55 2699.4,-257.42"/>
</g>
</g>
</svg>
