<?xml version="1.0" encoding="UTF-8" standalone="no"?>
<!DOCTYPE svg PUBLIC "-//W3C//DTD SVG 1.1//EN"
 "http://www.w3.org/Graphics/SVG/1.1/DTD/svg11.dtd">
<!-- Generated by graphviz version 3.0.0 (20220226.1711)
 -->
<!-- Pages: 1 -->
<svg width="1202px" height="764px"
 viewBox="0.00 0.00 1202.00 764.00" xmlns="http://www.w3.org/2000/svg" xmlns:xlink="http://www.w3.org/1999/xlink">
<g id="graph0" class="graph" transform="scale(1.0 1.0) rotate(0.0) translate(4.0 760.0)">
<polygon fill="white" stroke="transparent" points="-4,4 -4,-760 1198,-760 1198,4 -4,4"/>
<!-- 0 -->
<g id="node1" class="node">
<title>0</title>
<polygon fill="none" stroke="black" points="1015,-756 710,-756 710,-720 1015,-720 1015,-756"/>
<text text-anchor="middle" x="862.5" y="-734.3" font-family="Times,serif" font-size="14.00">testLab4Calc.Parser$Tree_fullExpression@2cdf8d8a</text>
</g>
<!-- 1 -->
<g id="node2" class="node">
<title>1</title>
<polygon fill="none" stroke="black" points="882.5,-684 594.5,-684 594.5,-648 882.5,-648 882.5,-684"/>
<text text-anchor="middle" x="738.5" y="-662.3" font-family="Times,serif" font-size="14.00">testLab4Calc.Parser$Tree_expression@443b7951</text>
</g>
<!-- 0&#45;&gt;1 -->
<g id="edge1" class="edge">
<title>0&#45;&gt;1</title>
<path fill="none" stroke="black" d="M832.17,-719.88C815.8,-710.64 795.42,-699.13 777.85,-689.21"/>
<polygon fill="black" stroke="black" points="779.38,-686.06 768.95,-684.19 775.94,-692.15 779.38,-686.06"/>
</g>
<!-- 18 -->
<g id="node19" class="node">
<title>18</title>
<polygon fill="none" stroke="black" points="1072.5,-684 900.5,-684 900.5,-648 1072.5,-648 1072.5,-684"/>
<text text-anchor="middle" x="986.5" y="-662.3" font-family="Times,serif" font-size="14.00">Token[type=EOF, content=]</text>
</g>
<!-- 0&#45;&gt;18 -->
<g id="edge2" class="edge">
<title>0&#45;&gt;18</title>
<path fill="none" stroke="black" d="M892.83,-719.88C909.2,-710.64 929.58,-699.13 947.15,-689.21"/>
<polygon fill="black" stroke="black" points="949.06,-692.15 956.05,-684.19 945.62,-686.06 949.06,-692.15"/>
</g>
<!-- 2 -->
<g id="node3" class="node">
<title>2</title>
<polygon fill="none" stroke="black" points="889,-612 588,-612 588,-576 889,-576 889,-612"/>
<text text-anchor="middle" x="738.5" y="-590.3" font-family="Times,serif" font-size="14.00">testLab4Calc.Parser$Tree_plusOperator@14514713</text>
</g>
<!-- 1&#45;&gt;2 -->
<g id="edge3" class="edge">
<title>1&#45;&gt;2</title>
<path fill="none" stroke="black" d="M738.5,-647.7C738.5,-639.98 738.5,-630.71 738.5,-622.11"/>
<polygon fill="black" stroke="black" points="742,-622.1 738.5,-612.1 735,-622.1 742,-622.1"/>
</g>
<!-- 3 -->
<g id="node4" class="node">
<title>3</title>
<polygon fill="none" stroke="black" points="680.5,-540 380.5,-540 380.5,-504 680.5,-504 680.5,-540"/>
<text text-anchor="middle" x="530.5" y="-518.3" font-family="Times,serif" font-size="14.00">testLab4Calc.Parser$Tree_mulOperator@69663380</text>
</g>
<!-- 2&#45;&gt;3 -->
<g id="edge4" class="edge">
<title>2&#45;&gt;3</title>
<path fill="none" stroke="black" d="M687.88,-575.97C658.69,-566.14 621.81,-553.73 591.08,-543.39"/>
<polygon fill="black" stroke="black" points="591.94,-539.98 581.34,-540.11 589.7,-546.62 591.94,-539.98"/>
</g>
<!-- 17 -->
<g id="node18" class="node">
<title>17</title>
<polygon fill="none" stroke="black" points="1194,-540 699,-540 699,-504 1194,-504 1194,-540"/>
<text text-anchor="middle" x="946.5" y="-518.3" font-family="Times,serif" font-size="14.00">testLab4Calc.Parser$Tree_plusOperatorCont_ZERO_OR_ONE1136602610@7e0b37bc</text>
</g>
<!-- 2&#45;&gt;17 -->
<g id="edge5" class="edge">
<title>2&#45;&gt;17</title>
<path fill="none" stroke="black" d="M789.12,-575.97C818.31,-566.14 855.19,-553.73 885.92,-543.39"/>
<polygon fill="black" stroke="black" points="887.3,-546.62 895.66,-540.11 885.06,-539.98 887.3,-546.62"/>
</g>
<!-- 4 -->
<g id="node5" class="node">
<title>4</title>
<polygon fill="none" stroke="black" points="472.5,-468 174.5,-468 174.5,-432 472.5,-432 472.5,-468"/>
<text text-anchor="middle" x="323.5" y="-446.3" font-family="Times,serif" font-size="14.00">testLab4Calc.Parser$Tree_factOperator@5b37e0d2</text>
</g>
<!-- 3&#45;&gt;4 -->
<g id="edge6" class="edge">
<title>3&#45;&gt;4</title>
<path fill="none" stroke="black" d="M480.13,-503.97C451.08,-494.14 414.37,-481.73 383.79,-471.39"/>
<polygon fill="black" stroke="black" points="384.69,-468 374.1,-468.11 382.45,-474.63 384.69,-468"/>
</g>
<!-- 16 -->
<g id="node17" class="node">
<title>16</title>
<polygon fill="none" stroke="black" points="984.5,-468 490.5,-468 490.5,-432 984.5,-432 984.5,-468"/>
<text text-anchor="middle" x="737.5" y="-446.3" font-family="Times,serif" font-size="14.00">testLab4Calc.Parser$Tree_mulOperatorCont_ZERO_OR_ONE2027401951@64a294a6</text>
</g>
<!-- 3&#45;&gt;16 -->
<g id="edge7" class="edge">
<title>3&#45;&gt;16</title>
<path fill="none" stroke="black" d="M580.87,-503.97C609.92,-494.14 646.63,-481.73 677.21,-471.39"/>
<polygon fill="black" stroke="black" points="678.55,-474.63 686.9,-468.11 676.31,-468 678.55,-474.63"/>
</g>
<!-- 5 -->
<g id="node6" class="node">
<title>5</title>
<polygon fill="none" stroke="black" points="255,-396 0,-396 0,-360 255,-360 255,-396"/>
<text text-anchor="middle" x="127.5" y="-374.3" font-family="Times,serif" font-size="14.00">testLab4Calc.Parser$Tree_term@4459eb14</text>
</g>
<!-- 4&#45;&gt;5 -->
<g id="edge8" class="edge">
<title>4&#45;&gt;5</title>
<path fill="none" stroke="black" d="M275.8,-431.97C248.42,-422.19 213.84,-409.84 184.97,-399.52"/>
<polygon fill="black" stroke="black" points="186,-396.18 175.41,-396.11 183.65,-402.77 186,-396.18"/>
</g>
<!-- 7 -->
<g id="node8" class="node">
<title>7</title>
<polygon fill="none" stroke="black" points="767.5,-396 273.5,-396 273.5,-360 767.5,-360 767.5,-396"/>
<text text-anchor="middle" x="520.5" y="-374.3" font-family="Times,serif" font-size="14.00">testLab4Calc.Parser$Tree_factOperatorCont_ZERO_OR_ONE1026521932@593634ad</text>
</g>
<!-- 4&#45;&gt;7 -->
<g id="edge9" class="edge">
<title>4&#45;&gt;7</title>
<path fill="none" stroke="black" d="M371.44,-431.97C398.97,-422.19 433.72,-409.84 462.74,-399.52"/>
<polygon fill="black" stroke="black" points="464.09,-402.76 472.35,-396.11 461.75,-396.16 464.09,-402.76"/>
</g>
<!-- 6 -->
<g id="node7" class="node">
<title>6</title>
<polygon fill="none" stroke="black" points="220.5,-324 34.5,-324 34.5,-288 220.5,-288 220.5,-324"/>
<text text-anchor="middle" x="127.5" y="-302.3" font-family="Times,serif" font-size="14.00">Token[type=NUM, content=3]</text>
</g>
<!-- 5&#45;&gt;6 -->
<g id="edge10" class="edge">
<title>5&#45;&gt;6</title>
<path fill="none" stroke="black" d="M127.5,-359.7C127.5,-351.98 127.5,-342.71 127.5,-334.11"/>
<polygon fill="black" stroke="black" points="131,-334.1 127.5,-324.1 124,-334.1 131,-334.1"/>
</g>
<!-- 8 -->
<g id="node9" class="node">
<title>8</title>
<polygon fill="none" stroke="black" points="681,-324 360,-324 360,-288 681,-288 681,-324"/>
<text text-anchor="middle" x="520.5" y="-302.3" font-family="Times,serif" font-size="14.00">testLab4Calc.Parser$Tree_factOperatorCont@20fa23c1</text>
</g>
<!-- 7&#45;&gt;8 -->
<g id="edge11" class="edge">
<title>7&#45;&gt;8</title>
<path fill="none" stroke="black" d="M520.5,-359.7C520.5,-351.98 520.5,-342.71 520.5,-334.11"/>
<polygon fill="black" stroke="black" points="524,-334.1 520.5,-324.1 517,-334.1 524,-334.1"/>
</g>
<!-- 9 -->
<g id="node10" class="node">
<title>9</title>
<polygon fill="none" stroke="black" points="450.5,-252 202.5,-252 202.5,-216 450.5,-216 450.5,-252"/>
<text text-anchor="middle" x="326.5" y="-230.3" font-family="Times,serif" font-size="14.00">testLab4Calc.Parser$Tree_fact@3581c5f3</text>
</g>
<!-- 8&#45;&gt;9 -->
<g id="edge12" class="edge">
<title>8&#45;&gt;9</title>
<path fill="none" stroke="black" d="M473.04,-287.88C445.93,-278.09 411.76,-265.77 383.24,-255.47"/>
<polygon fill="black" stroke="black" points="384.4,-252.17 373.8,-252.07 382.02,-258.75 384.4,-252.17"/>
</g>
<!-- 11 -->
<g id="node12" class="node">
<title>11</title>
<polygon fill="none" stroke="black" points="960,-252 469,-252 469,-216 960,-216 960,-252"/>
<text text-anchor="middle" x="714.5" y="-230.3" font-family="Times,serif" font-size="14.00">testLab4Calc.Parser$Tree_factOperatorCont_ZERO_OR_ONE1415426742@6aa8ceb6</text>
</g>
<!-- 8&#45;&gt;11 -->
<g id="edge13" class="edge">
<title>8&#45;&gt;11</title>
<path fill="none" stroke="black" d="M567.96,-287.88C595.07,-278.09 629.24,-265.77 657.76,-255.47"/>
<polygon fill="black" stroke="black" points="658.98,-258.75 667.2,-252.07 656.6,-252.17 658.98,-258.75"/>
</g>
<!-- 10 -->
<g id="node11" class="node">
<title>10</title>
<polygon fill="none" stroke="black" points="419,-180 234,-180 234,-144 419,-144 419,-180"/>
<text text-anchor="middle" x="326.5" y="-158.3" font-family="Times,serif" font-size="14.00">Token[type=FACT, content=!]</text>
</g>
<!-- 9&#45;&gt;10 -->
<g id="edge14" class="edge">
<title>9&#45;&gt;10</title>
<path fill="none" stroke="black" d="M326.5,-215.7C326.5,-207.98 326.5,-198.71 326.5,-190.11"/>
<polygon fill="black" stroke="black" points="330,-190.1 326.5,-180.1 323,-190.1 330,-190.1"/>
</g>
<!-- 12 -->
<g id="node13" class="node">
<title>12</title>
<polygon fill="none" stroke="black" points="873,-180 556,-180 556,-144 873,-144 873,-180"/>
<text text-anchor="middle" x="714.5" y="-158.3" font-family="Times,serif" font-size="14.00">testLab4Calc.Parser$Tree_factOperatorCont@2530c12</text>
</g>
<!-- 11&#45;&gt;12 -->
<g id="edge15" class="edge">
<title>11&#45;&gt;12</title>
<path fill="none" stroke="black" d="M714.5,-215.7C714.5,-207.98 714.5,-198.71 714.5,-190.11"/>
<polygon fill="black" stroke="black" points="718,-190.1 714.5,-180.1 711,-190.1 718,-190.1"/>
</g>
<!-- 13 -->
<g id="node14" class="node">
<title>13</title>
<polygon fill="none" stroke="black" points="644,-108 395,-108 395,-72 644,-72 644,-108"/>
<text text-anchor="middle" x="519.5" y="-86.3" font-family="Times,serif" font-size="14.00">testLab4Calc.Parser$Tree_fact@73c6c3b2</text>
</g>
<!-- 12&#45;&gt;13 -->
<g id="edge16" class="edge">
<title>12&#45;&gt;13</title>
<path fill="none" stroke="black" d="M666.8,-143.88C639.55,-134.09 605.2,-121.77 576.53,-111.47"/>
<polygon fill="black" stroke="black" points="577.64,-108.15 567.05,-108.07 575.28,-114.74 577.64,-108.15"/>
</g>
<!-- 15 -->
<g id="node16" class="node">
<title>15</title>
<polygon fill="none" stroke="black" points="1156.5,-108 662.5,-108 662.5,-72 1156.5,-72 1156.5,-108"/>
<text text-anchor="middle" x="909.5" y="-86.3" font-family="Times,serif" font-size="14.00">testLab4Calc.Parser$Tree_factOperatorCont_ZERO_OR_ONE1415426742@48533e64</text>
</g>
<!-- 12&#45;&gt;15 -->
<g id="edge17" class="edge">
<title>12&#45;&gt;15</title>
<path fill="none" stroke="black" d="M762.2,-143.88C789.45,-134.09 823.8,-121.77 852.47,-111.47"/>
<polygon fill="black" stroke="black" points="853.72,-114.74 861.95,-108.07 851.36,-108.15 853.72,-114.74"/>
</g>
<!-- 14 -->
<g id="node15" class="node">
<title>14</title>
<polygon fill="none" stroke="black" points="612,-36 427,-36 427,0 612,0 612,-36"/>
<text text-anchor="middle" x="519.5" y="-14.3" font-family="Times,serif" font-size="14.00">Token[type=FACT, content=!]</text>
</g>
<!-- 13&#45;&gt;14 -->
<g id="edge18" class="edge">
<title>13&#45;&gt;14</title>
<path fill="none" stroke="black" d="M519.5,-71.7C519.5,-63.98 519.5,-54.71 519.5,-46.11"/>
<polygon fill="black" stroke="black" points="523,-46.1 519.5,-36.1 516,-46.1 523,-46.1"/>
</g>
</g>
</svg>
