<?xml version="1.0" encoding="UTF-8" standalone="no"?>
<!DOCTYPE svg PUBLIC "-//W3C//DTD SVG 1.1//EN"
 "http://www.w3.org/Graphics/SVG/1.1/DTD/svg11.dtd">
<!-- Generated by graphviz version 3.0.0 (20220226.1711)
 -->
<!-- Pages: 1 -->
<svg width="2616px" height="260px"
 viewBox="0.00 0.00 2615.50 260.00" xmlns="http://www.w3.org/2000/svg" xmlns:xlink="http://www.w3.org/1999/xlink">
<g id="graph0" class="graph" transform="scale(1.0 1.0) rotate(0.0) translate(4.0 256.0)">
<polygon fill="white" stroke="transparent" points="-4,4 -4,-256 2611.5,-256 2611.5,4 -4,4"/>
<!-- 0 -->
<g id="node1" class="node">
<title>0</title>
<polygon fill="none" stroke="black" points="1454,-252 1173,-252 1173,-216 1454,-216 1454,-252"/>
<text text-anchor="middle" x="1313.5" y="-230.3" font-family="Times,serif" font-size="14.00">testLab2Var12.Parser$Tree_forLoop@41906a77</text>
</g>
<!-- 1 -->
<g id="node2" class="node">
<title>1</title>
<polygon fill="none" stroke="black" points="189,-180 0,-180 0,-144 189,-144 189,-180"/>
<text text-anchor="middle" x="94.5" y="-158.3" font-family="Times,serif" font-size="14.00">Token[type=FOR, content=for]</text>
</g>
<!-- 0&#45;&gt;1 -->
<g id="edge1" class="edge">
<title>0&#45;&gt;1</title>
<path fill="none" stroke="black" d="M1172.74,-231.47C962.82,-228.03 555.24,-216.91 199.09,-179.98"/>
<polygon fill="black" stroke="black" points="199.41,-176.49 189.1,-178.93 198.68,-183.46 199.41,-176.49"/>
</g>
<!-- 2 -->
<g id="node3" class="node">
<title>2</title>
<polygon fill="none" stroke="black" points="393.5,-180 207.5,-180 207.5,-144 393.5,-144 393.5,-180"/>
<text text-anchor="middle" x="300.5" y="-158.3" font-family="Times,serif" font-size="14.00">Token[type=LPAR, content=(]</text>
</g>
<!-- 0&#45;&gt;2 -->
<g id="edge2" class="edge">
<title>0&#45;&gt;2</title>
<path fill="none" stroke="black" d="M1172.65,-229.48C995.49,-223.99 681.86,-210.77 403.84,-180.08"/>
<polygon fill="black" stroke="black" points="403.88,-176.56 393.55,-178.93 403.11,-183.52 403.88,-176.56"/>
</g>
<!-- 3 -->
<g id="node4" class="node">
<title>3</title>
<polygon fill="none" stroke="black" points="837,-180 412,-180 412,-144 837,-144 837,-180"/>
<text text-anchor="middle" x="624.5" y="-158.3" font-family="Times,serif" font-size="14.00">testLab2Var12.Parser$Tree_init_ZERO_OR_ONE1100249452@50134894</text>
</g>
<!-- 0&#45;&gt;3 -->
<g id="edge3" class="edge">
<title>0&#45;&gt;3</title>
<path fill="none" stroke="black" d="M1172.82,-218.71C1065.65,-207.82 917.37,-192.75 802.03,-181.04"/>
<polygon fill="black" stroke="black" points="802.33,-177.55 792.03,-180.02 801.62,-184.51 802.33,-177.55"/>
</g>
<!-- 9 -->
<g id="node10" class="node">
<title>9</title>
<polygon fill="none" stroke="black" points="1085.5,-180 855.5,-180 855.5,-144 1085.5,-144 1085.5,-180"/>
<text text-anchor="middle" x="970.5" y="-158.3" font-family="Times,serif" font-size="14.00">Token[type=SEMICOLON, content=;]</text>
</g>
<!-- 0&#45;&gt;9 -->
<g id="edge4" class="edge">
<title>0&#45;&gt;9</title>
<path fill="none" stroke="black" d="M1230.03,-215.97C1179.83,-205.72 1115.81,-192.66 1063.92,-182.07"/>
<polygon fill="black" stroke="black" points="1064.54,-178.62 1054.05,-180.05 1063.14,-185.48 1064.54,-178.62"/>
</g>
<!-- 10 -->
<g id="node11" class="node">
<title>10</title>
<polygon fill="none" stroke="black" points="1523,-180 1104,-180 1104,-144 1523,-144 1523,-180"/>
<text text-anchor="middle" x="1313.5" y="-158.3" font-family="Times,serif" font-size="14.00">testLab2Var12.Parser$Tree_cond_ZERO_OR_ONE87108567@1376c05c</text>
</g>
<!-- 0&#45;&gt;10 -->
<g id="edge5" class="edge">
<title>0&#45;&gt;10</title>
<path fill="none" stroke="black" d="M1313.5,-215.7C1313.5,-207.98 1313.5,-198.71 1313.5,-190.11"/>
<polygon fill="black" stroke="black" points="1317,-190.1 1313.5,-180.1 1310,-190.1 1317,-190.1"/>
</g>
<!-- 15 -->
<g id="node16" class="node">
<title>15</title>
<polygon fill="none" stroke="black" points="1771.5,-180 1541.5,-180 1541.5,-144 1771.5,-144 1771.5,-180"/>
<text text-anchor="middle" x="1656.5" y="-158.3" font-family="Times,serif" font-size="14.00">Token[type=SEMICOLON, content=;]</text>
</g>
<!-- 0&#45;&gt;15 -->
<g id="edge6" class="edge">
<title>0&#45;&gt;15</title>
<path fill="none" stroke="black" d="M1396.97,-215.97C1447.17,-205.72 1511.19,-192.66 1563.08,-182.07"/>
<polygon fill="black" stroke="black" points="1563.86,-185.48 1572.95,-180.05 1562.46,-178.62 1563.86,-185.48"/>
</g>
<!-- 16 -->
<g id="node17" class="node">
<title>16</title>
<polygon fill="none" stroke="black" points="2211.5,-180 1789.5,-180 1789.5,-144 2211.5,-144 2211.5,-180"/>
<text text-anchor="middle" x="2000.5" y="-158.3" font-family="Times,serif" font-size="14.00">testLab2Var12.Parser$Tree_inc_ZERO_OR_ONE1779071669@1b4fb997</text>
</g>
<!-- 0&#45;&gt;16 -->
<g id="edge7" class="edge">
<title>0&#45;&gt;16</title>
<path fill="none" stroke="black" d="M1454.18,-218.67C1560.99,-207.78 1708.55,-192.75 1823.39,-181.05"/>
<polygon fill="black" stroke="black" points="1823.75,-184.53 1833.35,-180.03 1823.04,-177.56 1823.75,-184.53"/>
</g>
<!-- 20 -->
<g id="node21" class="node">
<title>20</title>
<polygon fill="none" stroke="black" points="2417,-180 2230,-180 2230,-144 2417,-144 2417,-180"/>
<text text-anchor="middle" x="2323.5" y="-158.3" font-family="Times,serif" font-size="14.00">Token[type=RPAR, content=)]</text>
</g>
<!-- 0&#45;&gt;20 -->
<g id="edge8" class="edge">
<title>0&#45;&gt;20</title>
<path fill="none" stroke="black" d="M1454.12,-229.37C1630.56,-223.77 1942.55,-210.44 2219.56,-180.03"/>
<polygon fill="black" stroke="black" points="2220.26,-183.47 2229.81,-178.89 2219.48,-176.51 2220.26,-183.47"/>
</g>
<!-- 21 -->
<g id="node22" class="node">
<title>21</title>
<polygon fill="none" stroke="black" points="2607.5,-180 2435.5,-180 2435.5,-144 2607.5,-144 2607.5,-180"/>
<text text-anchor="middle" x="2521.5" y="-158.3" font-family="Times,serif" font-size="14.00">Token[type=EOF, content=]</text>
</g>
<!-- 0&#45;&gt;21 -->
<g id="edge9" class="edge">
<title>0&#45;&gt;21</title>
<path fill="none" stroke="black" d="M1454.09,-232.13C1663.72,-229.53 2070.69,-219.46 2425.41,-180.03"/>
<polygon fill="black" stroke="black" points="2425.81,-183.51 2435.36,-178.92 2425.03,-176.55 2425.81,-183.51"/>
</g>
<!-- 4 -->
<g id="node5" class="node">
<title>4</title>
<polygon fill="none" stroke="black" points="751,-108 498,-108 498,-72 751,-72 751,-108"/>
<text text-anchor="middle" x="624.5" y="-86.3" font-family="Times,serif" font-size="14.00">testLab2Var12.Parser$Tree_init@2957fcb0</text>
</g>
<!-- 3&#45;&gt;4 -->
<g id="edge10" class="edge">
<title>3&#45;&gt;4</title>
<path fill="none" stroke="black" d="M624.5,-143.7C624.5,-135.98 624.5,-126.71 624.5,-118.11"/>
<polygon fill="black" stroke="black" points="628,-118.1 624.5,-108.1 621,-118.1 628,-118.1"/>
</g>
<!-- 5 -->
<g id="node6" class="node">
<title>5</title>
<polygon fill="none" stroke="black" points="327,-36 132,-36 132,0 327,0 327,-36"/>
<text text-anchor="middle" x="229.5" y="-14.3" font-family="Times,serif" font-size="14.00">Token[type=TYPE, content=int]</text>
</g>
<!-- 4&#45;&gt;5 -->
<g id="edge11" class="edge">
<title>4&#45;&gt;5</title>
<path fill="none" stroke="black" d="M528.38,-71.97C470.08,-61.63 395.61,-48.44 335.59,-37.8"/>
<polygon fill="black" stroke="black" points="336.17,-34.35 325.71,-36.05 334.95,-41.24 336.17,-34.35"/>
</g>
<!-- 6 -->
<g id="node7" class="node">
<title>6</title>
<polygon fill="none" stroke="black" points="523.5,-36 345.5,-36 345.5,0 523.5,0 523.5,-36"/>
<text text-anchor="middle" x="434.5" y="-14.3" font-family="Times,serif" font-size="14.00">Token[type=VAR, content=i]</text>
</g>
<!-- 4&#45;&gt;6 -->
<g id="edge12" class="edge">
<title>4&#45;&gt;6</title>
<path fill="none" stroke="black" d="M578.02,-71.88C551.58,-62.14 518.3,-49.87 490.44,-39.61"/>
<polygon fill="black" stroke="black" points="491.42,-36.24 480.83,-36.07 489,-42.81 491.42,-36.24"/>
</g>
<!-- 7 -->
<g id="node8" class="node">
<title>7</title>
<polygon fill="none" stroke="black" points="751,-36 542,-36 542,0 751,0 751,-36"/>
<text text-anchor="middle" x="646.5" y="-14.3" font-family="Times,serif" font-size="14.00">Token[type=EQUALS, content==]</text>
</g>
<!-- 4&#45;&gt;7 -->
<g id="edge13" class="edge">
<title>4&#45;&gt;7</title>
<path fill="none" stroke="black" d="M629.94,-71.7C632.39,-63.9 635.34,-54.51 638.07,-45.83"/>
<polygon fill="black" stroke="black" points="641.46,-46.69 641.12,-36.1 634.79,-44.59 641.46,-46.69"/>
</g>
<!-- 8 -->
<g id="node9" class="node">
<title>8</title>
<polygon fill="none" stroke="black" points="967.5,-36 769.5,-36 769.5,0 967.5,0 967.5,-36"/>
<text text-anchor="middle" x="868.5" y="-14.3" font-family="Times,serif" font-size="14.00">Token[type=VALUE, content=0]</text>
</g>
<!-- 4&#45;&gt;8 -->
<g id="edge14" class="edge">
<title>4&#45;&gt;8</title>
<path fill="none" stroke="black" d="M683.88,-71.97C718.56,-62.01 762.51,-49.41 798.83,-38.99"/>
<polygon fill="black" stroke="black" points="800.21,-42.23 808.86,-36.11 798.28,-35.5 800.21,-42.23"/>
</g>
<!-- 11 -->
<g id="node12" class="node">
<title>11</title>
<polygon fill="none" stroke="black" points="1445,-108 1182,-108 1182,-72 1445,-72 1445,-108"/>
<text text-anchor="middle" x="1313.5" y="-86.3" font-family="Times,serif" font-size="14.00">testLab2Var12.Parser$Tree_cond@51521cc1</text>
</g>
<!-- 10&#45;&gt;11 -->
<g id="edge15" class="edge">
<title>10&#45;&gt;11</title>
<path fill="none" stroke="black" d="M1313.5,-143.7C1313.5,-135.98 1313.5,-126.71 1313.5,-118.11"/>
<polygon fill="black" stroke="black" points="1317,-118.1 1313.5,-108.1 1310,-118.1 1317,-118.1"/>
</g>
<!-- 12 -->
<g id="node13" class="node">
<title>12</title>
<polygon fill="none" stroke="black" points="1184.5,-36 1006.5,-36 1006.5,0 1184.5,0 1184.5,-36"/>
<text text-anchor="middle" x="1095.5" y="-14.3" font-family="Times,serif" font-size="14.00">Token[type=VAR, content=i]</text>
</g>
<!-- 11&#45;&gt;12 -->
<g id="edge16" class="edge">
<title>11&#45;&gt;12</title>
<path fill="none" stroke="black" d="M1260.45,-71.97C1229.73,-62.1 1190.86,-49.62 1158.58,-39.25"/>
<polygon fill="black" stroke="black" points="1159.38,-35.84 1148.79,-36.11 1157.24,-42.5 1159.38,-35.84"/>
</g>
<!-- 13 -->
<g id="node14" class="node">
<title>13</title>
<polygon fill="none" stroke="black" points="1424,-36 1203,-36 1203,0 1424,0 1424,-36"/>
<text text-anchor="middle" x="1313.5" y="-14.3" font-family="Times,serif" font-size="14.00">Token[type=COMPARE, content=&lt;]</text>
</g>
<!-- 11&#45;&gt;13 -->
<g id="edge17" class="edge">
<title>11&#45;&gt;13</title>
<path fill="none" stroke="black" d="M1313.5,-71.7C1313.5,-63.98 1313.5,-54.71 1313.5,-46.11"/>
<polygon fill="black" stroke="black" points="1317,-46.1 1313.5,-36.1 1310,-46.1 1317,-46.1"/>
</g>
<!-- 14 -->
<g id="node15" class="node">
<title>14</title>
<polygon fill="none" stroke="black" points="1640.5,-36 1442.5,-36 1442.5,0 1640.5,0 1640.5,-36"/>
<text text-anchor="middle" x="1541.5" y="-14.3" font-family="Times,serif" font-size="14.00">Token[type=VALUE, content=5]</text>
</g>
<!-- 11&#45;&gt;14 -->
<g id="edge18" class="edge">
<title>11&#45;&gt;14</title>
<path fill="none" stroke="black" d="M1368.98,-71.97C1401.26,-62.06 1442.11,-49.51 1475.96,-39.12"/>
<polygon fill="black" stroke="black" points="1477.24,-42.39 1485.77,-36.11 1475.18,-35.7 1477.24,-42.39"/>
</g>
<!-- 17 -->
<g id="node18" class="node">
<title>17</title>
<polygon fill="none" stroke="black" points="2124,-108 1877,-108 1877,-72 2124,-72 2124,-108"/>
<text text-anchor="middle" x="2000.5" y="-86.3" font-family="Times,serif" font-size="14.00">testLab2Var12.Parser$Tree_inc@deb6432</text>
</g>
<!-- 16&#45;&gt;17 -->
<g id="edge19" class="edge">
<title>16&#45;&gt;17</title>
<path fill="none" stroke="black" d="M2000.5,-143.7C2000.5,-135.98 2000.5,-126.71 2000.5,-118.11"/>
<polygon fill="black" stroke="black" points="2004,-118.1 2000.5,-108.1 1997,-118.1 2004,-118.1"/>
</g>
<!-- 18 -->
<g id="node19" class="node">
<title>18</title>
<polygon fill="none" stroke="black" points="1989.5,-36 1811.5,-36 1811.5,0 1989.5,0 1989.5,-36"/>
<text text-anchor="middle" x="1900.5" y="-14.3" font-family="Times,serif" font-size="14.00">Token[type=VAR, content=i]</text>
</g>
<!-- 17&#45;&gt;18 -->
<g id="edge20" class="edge">
<title>17&#45;&gt;18</title>
<path fill="none" stroke="black" d="M1976.04,-71.88C1963.2,-62.89 1947.3,-51.76 1933.41,-42.03"/>
<polygon fill="black" stroke="black" points="1935.26,-39.06 1925.06,-36.19 1931.24,-44.79 1935.26,-39.06"/>
</g>
<!-- 19 -->
<g id="node20" class="node">
<title>19</title>
<polygon fill="none" stroke="black" points="2195,-36 2008,-36 2008,0 2195,0 2195,-36"/>
<text text-anchor="middle" x="2101.5" y="-14.3" font-family="Times,serif" font-size="14.00">Token[type=INC, content=++]</text>
</g>
<!-- 17&#45;&gt;19 -->
<g id="edge21" class="edge">
<title>17&#45;&gt;19</title>
<path fill="none" stroke="black" d="M2025.21,-71.88C2038.17,-62.89 2054.23,-51.76 2068.27,-42.03"/>
<polygon fill="black" stroke="black" points="2070.47,-44.76 2076.7,-36.19 2066.48,-39.01 2070.47,-44.76"/>
</g>
</g>
</svg>
