<?xml version="1.0" encoding="UTF-8" standalone="no"?>
<!DOCTYPE svg PUBLIC "-//W3C//DTD SVG 1.1//EN"
 "http://www.w3.org/Graphics/SVG/1.1/DTD/svg11.dtd">
<!-- Generated by graphviz version 3.0.0 (20220226.1711)
 -->
<!-- Pages: 1 -->
<svg width="1199px" height="764px"
 viewBox="0.00 0.00 1199.00 764.00" xmlns="http://www.w3.org/2000/svg" xmlns:xlink="http://www.w3.org/1999/xlink">
<g id="graph0" class="graph" transform="scale(1.0 1.0) rotate(0.0) translate(4.0 760.0)">
<polygon fill="white" stroke="transparent" points="-4,4 -4,-760 1195,-760 1195,4 -4,4"/>
<!-- 0 -->
<g id="node1" class="node">
<title>0</title>
<polygon fill="none" stroke="black" points="1012,-756 707,-756 707,-720 1012,-720 1012,-756"/>
<text text-anchor="middle" x="859.5" y="-734.3" font-family="Times,serif" font-size="14.00">testLab4Calc.Parser$Tree_fullExpression@2cdf8d8a</text>
</g>
<!-- 1 -->
<g id="node2" class="node">
<title>1</title>
<polygon fill="none" stroke="black" points="879.5,-684 591.5,-684 591.5,-648 879.5,-648 879.5,-684"/>
<text text-anchor="middle" x="735.5" y="-662.3" font-family="Times,serif" font-size="14.00">testLab4Calc.Parser$Tree_expression@443b7951</text>
</g>
<!-- 0&#45;&gt;1 -->
<g id="edge1" class="edge">
<title>0&#45;&gt;1</title>
<path fill="none" stroke="black" d="M829.17,-719.88C812.8,-710.64 792.42,-699.13 774.85,-689.21"/>
<polygon fill="black" stroke="black" points="776.38,-686.06 765.95,-684.19 772.94,-692.15 776.38,-686.06"/>
</g>
<!-- 18 -->
<g id="node19" class="node">
<title>18</title>
<polygon fill="none" stroke="black" points="1069.5,-684 897.5,-684 897.5,-648 1069.5,-648 1069.5,-684"/>
<text text-anchor="middle" x="983.5" y="-662.3" font-family="Times,serif" font-size="14.00">Token[type=EOF, content=]</text>
</g>
<!-- 0&#45;&gt;18 -->
<g id="edge2" class="edge">
<title>0&#45;&gt;18</title>
<path fill="none" stroke="black" d="M889.83,-719.88C906.2,-710.64 926.58,-699.13 944.15,-689.21"/>
<polygon fill="black" stroke="black" points="946.06,-692.15 953.05,-684.19 942.62,-686.06 946.06,-692.15"/>
</g>
<!-- 2 -->
<g id="node3" class="node">
<title>2</title>
<polygon fill="none" stroke="black" points="886,-612 585,-612 585,-576 886,-576 886,-612"/>
<text text-anchor="middle" x="735.5" y="-590.3" font-family="Times,serif" font-size="14.00">testLab4Calc.Parser$Tree_plusOperator@14514713</text>
</g>
<!-- 1&#45;&gt;2 -->
<g id="edge3" class="edge">
<title>1&#45;&gt;2</title>
<path fill="none" stroke="black" d="M735.5,-647.7C735.5,-639.98 735.5,-630.71 735.5,-622.11"/>
<polygon fill="black" stroke="black" points="739,-622.1 735.5,-612.1 732,-622.1 739,-622.1"/>
</g>
<!-- 3 -->
<g id="node4" class="node">
<title>3</title>
<polygon fill="none" stroke="black" points="677.5,-540 377.5,-540 377.5,-504 677.5,-504 677.5,-540"/>
<text text-anchor="middle" x="527.5" y="-518.3" font-family="Times,serif" font-size="14.00">testLab4Calc.Parser$Tree_mulOperator@69663380</text>
</g>
<!-- 2&#45;&gt;3 -->
<g id="edge4" class="edge">
<title>2&#45;&gt;3</title>
<path fill="none" stroke="black" d="M684.88,-575.97C655.69,-566.14 618.81,-553.73 588.08,-543.39"/>
<polygon fill="black" stroke="black" points="588.94,-539.98 578.34,-540.11 586.7,-546.62 588.94,-539.98"/>
</g>
<!-- 17 -->
<g id="node18" class="node">
<title>17</title>
<polygon fill="none" stroke="black" points="1191,-540 696,-540 696,-504 1191,-504 1191,-540"/>
<text text-anchor="middle" x="943.5" y="-518.3" font-family="Times,serif" font-size="14.00">testLab4Calc.Parser$Tree_plusOperatorCont_ZERO_OR_ONE1100334706@7e0b37bc</text>
</g>
<!-- 2&#45;&gt;17 -->
<g id="edge5" class="edge">
<title>2&#45;&gt;17</title>
<path fill="none" stroke="black" d="M786.12,-575.97C815.31,-566.14 852.19,-553.73 882.92,-543.39"/>
<polygon fill="black" stroke="black" points="884.3,-546.62 892.66,-540.11 882.06,-539.98 884.3,-546.62"/>
</g>
<!-- 4 -->
<g id="node5" class="node">
<title>4</title>
<polygon fill="none" stroke="black" points="469.5,-468 171.5,-468 171.5,-432 469.5,-432 469.5,-468"/>
<text text-anchor="middle" x="320.5" y="-446.3" font-family="Times,serif" font-size="14.00">testLab4Calc.Parser$Tree_factOperator@5b37e0d2</text>
</g>
<!-- 3&#45;&gt;4 -->
<g id="edge6" class="edge">
<title>3&#45;&gt;4</title>
<path fill="none" stroke="black" d="M477.13,-503.97C448.08,-494.14 411.37,-481.73 380.79,-471.39"/>
<polygon fill="black" stroke="black" points="381.69,-468 371.1,-468.11 379.45,-474.63 381.69,-468"/>
</g>
<!-- 16 -->
<g id="node17" class="node">
<title>16</title>
<polygon fill="none" stroke="black" points="981.5,-468 487.5,-468 487.5,-432 981.5,-432 981.5,-468"/>
<text text-anchor="middle" x="734.5" y="-446.3" font-family="Times,serif" font-size="14.00">testLab4Calc.Parser$Tree_mulOperatorCont_ZERO_OR_ONE1040661775@64a294a6</text>
</g>
<!-- 3&#45;&gt;16 -->
<g id="edge7" class="edge">
<title>3&#45;&gt;16</title>
<path fill="none" stroke="black" d="M577.87,-503.97C606.92,-494.14 643.63,-481.73 674.21,-471.39"/>
<polygon fill="black" stroke="black" points="675.55,-474.63 683.9,-468.11 673.31,-468 675.55,-474.63"/>
</g>
<!-- 5 -->
<g id="node6" class="node">
<title>5</title>
<polygon fill="none" stroke="black" points="255,-396 0,-396 0,-360 255,-360 255,-396"/>
<text text-anchor="middle" x="127.5" y="-374.3" font-family="Times,serif" font-size="14.00">testLab4Calc.Parser$Tree_term@4459eb14</text>
</g>
<!-- 4&#45;&gt;5 -->
<g id="edge8" class="edge">
<title>4&#45;&gt;5</title>
<path fill="none" stroke="black" d="M273.29,-431.88C246.43,-422.14 212.62,-409.87 184.32,-399.61"/>
<polygon fill="black" stroke="black" points="185.15,-396.19 174.56,-396.07 182.77,-402.77 185.15,-396.19"/>
</g>
<!-- 7 -->
<g id="node8" class="node">
<title>7</title>
<polygon fill="none" stroke="black" points="753.5,-396 273.5,-396 273.5,-360 753.5,-360 753.5,-396"/>
<text text-anchor="middle" x="513.5" y="-374.3" font-family="Times,serif" font-size="14.00">testLab4Calc.Parser$Tree_factOperatorCont_ZERO_OR_ONE19962025@593634ad</text>
</g>
<!-- 4&#45;&gt;7 -->
<g id="edge9" class="edge">
<title>4&#45;&gt;7</title>
<path fill="none" stroke="black" d="M367.71,-431.88C394.57,-422.14 428.38,-409.87 456.68,-399.61"/>
<polygon fill="black" stroke="black" points="458.23,-402.77 466.44,-396.07 455.85,-396.19 458.23,-402.77"/>
</g>
<!-- 6 -->
<g id="node7" class="node">
<title>6</title>
<polygon fill="none" stroke="black" points="220.5,-324 34.5,-324 34.5,-288 220.5,-288 220.5,-324"/>
<text text-anchor="middle" x="127.5" y="-302.3" font-family="Times,serif" font-size="14.00">Token[type=NUM, content=3]</text>
</g>
<!-- 5&#45;&gt;6 -->
<g id="edge10" class="edge">
<title>5&#45;&gt;6</title>
<path fill="none" stroke="black" d="M127.5,-359.7C127.5,-351.98 127.5,-342.71 127.5,-334.11"/>
<polygon fill="black" stroke="black" points="131,-334.1 127.5,-324.1 124,-334.1 131,-334.1"/>
</g>
<!-- 8 -->
<g id="node9" class="node">
<title>8</title>
<polygon fill="none" stroke="black" points="674,-324 353,-324 353,-288 674,-288 674,-324"/>
<text text-anchor="middle" x="513.5" y="-302.3" font-family="Times,serif" font-size="14.00">testLab4Calc.Parser$Tree_factOperatorCont@20fa23c1</text>
</g>
<!-- 7&#45;&gt;8 -->
<g id="edge11" class="edge">
<title>7&#45;&gt;8</title>
<path fill="none" stroke="black" d="M513.5,-359.7C513.5,-351.98 513.5,-342.71 513.5,-334.11"/>
<polygon fill="black" stroke="black" points="517,-334.1 513.5,-324.1 510,-334.1 517,-334.1"/>
</g>
<!-- 9 -->
<g id="node10" class="node">
<title>9</title>
<polygon fill="none" stroke="black" points="445.5,-252 197.5,-252 197.5,-216 445.5,-216 445.5,-252"/>
<text text-anchor="middle" x="321.5" y="-230.3" font-family="Times,serif" font-size="14.00">testLab4Calc.Parser$Tree_fact@3581c5f3</text>
</g>
<!-- 8&#45;&gt;9 -->
<g id="edge12" class="edge">
<title>8&#45;&gt;9</title>
<path fill="none" stroke="black" d="M466.53,-287.88C439.82,-278.14 406.18,-265.87 378.03,-255.61"/>
<polygon fill="black" stroke="black" points="378.91,-252.21 368.32,-252.07 376.51,-258.78 378.91,-252.21"/>
</g>
<!-- 11 -->
<g id="node12" class="node">
<title>11</title>
<polygon fill="none" stroke="black" points="949,-252 464,-252 464,-216 949,-216 949,-252"/>
<text text-anchor="middle" x="706.5" y="-230.3" font-family="Times,serif" font-size="14.00">testLab4Calc.Parser$Tree_factOperatorCont_ZERO_OR_ONE661248853@6aa8ceb6</text>
</g>
<!-- 8&#45;&gt;11 -->
<g id="edge13" class="edge">
<title>8&#45;&gt;11</title>
<path fill="none" stroke="black" d="M560.71,-287.88C587.57,-278.14 621.38,-265.87 649.68,-255.61"/>
<polygon fill="black" stroke="black" points="651.23,-258.77 659.44,-252.07 648.85,-252.19 651.23,-258.77"/>
</g>
<!-- 10 -->
<g id="node11" class="node">
<title>10</title>
<polygon fill="none" stroke="black" points="415,-180 228,-180 228,-144 415,-144 415,-180"/>
<text text-anchor="middle" x="321.5" y="-158.3" font-family="Times,serif" font-size="14.00">Token[type=FACT, content=?]</text>
</g>
<!-- 9&#45;&gt;10 -->
<g id="edge14" class="edge">
<title>9&#45;&gt;10</title>
<path fill="none" stroke="black" d="M321.5,-215.7C321.5,-207.98 321.5,-198.71 321.5,-190.11"/>
<polygon fill="black" stroke="black" points="325,-190.1 321.5,-180.1 318,-190.1 325,-190.1"/>
</g>
<!-- 12 -->
<g id="node13" class="node">
<title>12</title>
<polygon fill="none" stroke="black" points="865,-180 548,-180 548,-144 865,-144 865,-180"/>
<text text-anchor="middle" x="706.5" y="-158.3" font-family="Times,serif" font-size="14.00">testLab4Calc.Parser$Tree_factOperatorCont@2530c12</text>
</g>
<!-- 11&#45;&gt;12 -->
<g id="edge15" class="edge">
<title>11&#45;&gt;12</title>
<path fill="none" stroke="black" d="M706.5,-215.7C706.5,-207.98 706.5,-198.71 706.5,-190.11"/>
<polygon fill="black" stroke="black" points="710,-190.1 706.5,-180.1 703,-190.1 710,-190.1"/>
</g>
<!-- 13 -->
<g id="node14" class="node">
<title>13</title>
<polygon fill="none" stroke="black" points="638,-108 389,-108 389,-72 638,-72 638,-108"/>
<text text-anchor="middle" x="513.5" y="-86.3" font-family="Times,serif" font-size="14.00">testLab4Calc.Parser$Tree_fact@73c6c3b2</text>
</g>
<!-- 12&#45;&gt;13 -->
<g id="edge16" class="edge">
<title>12&#45;&gt;13</title>
<path fill="none" stroke="black" d="M659.29,-143.88C632.43,-134.14 598.62,-121.87 570.32,-111.61"/>
<polygon fill="black" stroke="black" points="571.15,-108.19 560.56,-108.07 568.77,-114.77 571.15,-108.19"/>
</g>
<!-- 15 -->
<g id="node16" class="node">
<title>15</title>
<polygon fill="none" stroke="black" points="1143,-108 656,-108 656,-72 1143,-72 1143,-108"/>
<text text-anchor="middle" x="899.5" y="-86.3" font-family="Times,serif" font-size="14.00">testLab4Calc.Parser$Tree_factOperatorCont_ZERO_OR_ONE661248853@48533e64</text>
</g>
<!-- 12&#45;&gt;15 -->
<g id="edge17" class="edge">
<title>12&#45;&gt;15</title>
<path fill="none" stroke="black" d="M753.71,-143.88C780.57,-134.14 814.38,-121.87 842.68,-111.61"/>
<polygon fill="black" stroke="black" points="844.23,-114.77 852.44,-108.07 841.85,-108.19 844.23,-114.77"/>
</g>
<!-- 14 -->
<g id="node15" class="node">
<title>14</title>
<polygon fill="none" stroke="black" points="607,-36 420,-36 420,0 607,0 607,-36"/>
<text text-anchor="middle" x="513.5" y="-14.3" font-family="Times,serif" font-size="14.00">Token[type=FACT, content=?]</text>
</g>
<!-- 13&#45;&gt;14 -->
<g id="edge18" class="edge">
<title>13&#45;&gt;14</title>
<path fill="none" stroke="black" d="M513.5,-71.7C513.5,-63.98 513.5,-54.71 513.5,-46.11"/>
<polygon fill="black" stroke="black" points="517,-46.1 513.5,-36.1 510,-46.1 517,-46.1"/>
</g>
</g>
</svg>
